<svg width="25" height="34" viewBox="0 0 25 34" fill="none" xmlns="http://www.w3.org/2000/svg">
<path d="M12.5 15.75C14.2949 15.75 15.75 14.2949 15.75 12.5C15.75 10.7051 14.2949 9.25 12.5 9.25C10.7051 9.25 9.25 10.7051 9.25 12.5C9.25 14.2949 10.7051 15.75 12.5 15.75Z" fill="#FF8383" stroke="white" stroke-width="2"/>
<path d="M4.69759 22.8434L4.69765 22.8435C6.63031 26.3139 8.85986 29.4427 10.0178 30.9976C10.3044 31.386 10.6785 31.7014 11.1095 31.9188C11.5413 32.1366 12.0183 32.25 12.502 32.25C12.9856 32.25 13.4626 32.1366 13.8945 31.9188C14.3256 31.7014 14.6998 31.3858 14.9864 30.9972C16.1416 29.4433 18.3734 26.3144 20.3063 22.8435L20.3066 22.8429C22.6952 18.5467 24 14.8749 24 11.9898C24 5.88374 18.7942 1 12.5 1C6.20576 1 1 5.88374 1 11.9898C1 14.8738 2.30491 18.5457 4.69759 22.8434ZM12.4997 15.6255C11.8658 15.6255 11.2465 15.4384 10.7202 15.0885C10.1939 14.7386 9.78447 14.2419 9.54289 13.6616C9.30134 13.0814 9.23822 12.4432 9.3613 11.8276C9.48438 11.212 9.78831 10.6458 10.2355 10.2009C10.6827 9.75597 11.253 9.4524 11.8748 9.32936C12.4965 9.20631 13.1409 9.26951 13.7262 9.51074C14.3115 9.75195 14.811 10.1601 15.162 10.6828C15.5129 11.2053 15.6999 11.8191 15.7 12.4465C15.6989 13.2876 15.3626 14.095 14.7632 14.6914C14.1636 15.2879 13.3498 15.6244 12.4997 15.6255Z" fill="#FF8383" stroke="white" stroke-width="2"/>
</svg>
