<svg width="39" height="34" viewBox="0 0 39 34" fill="none" xmlns="http://www.w3.org/2000/svg">
<path d="M15.5716 3.32294C18.3951 1.99155 19.8064 1.32551 20.7303 1.98715C21.6542 2.6488 21.478 4.19936 21.1267 7.30119L21.0358 8.10402C20.9357 8.9858 20.8856 9.42668 21.01 9.83012C21.1343 10.2336 21.4206 10.5552 21.9931 11.1984L22.513 11.7832C24.5237 14.0454 25.5285 15.1753 25.1569 16.2981C24.785 17.4192 23.282 17.7908 20.2758 18.5323L19.4982 18.7237C18.6446 18.9345 18.2165 19.0398 17.8718 19.3006C17.5263 19.5624 17.3016 19.9505 16.8527 20.7257L16.444 21.4323C14.8624 24.1623 14.0724 25.5271 12.9192 25.5588C11.7652 25.5914 11.0123 24.2685 9.50712 21.626L9.11613 20.9415C8.6891 20.19 8.47488 19.8152 8.13635 19.5727C7.79782 19.3303 7.37399 19.2482 6.52495 19.0859L5.75205 18.9368C2.76464 18.3619 1.27045 18.0741 0.92936 16.9738C0.587717 15.8701 1.62551 14.6827 3.70081 12.3062L4.23752 11.6928C4.82759 11.0173 5.12262 10.6795 5.25761 10.2684C5.39524 9.85778 5.35701 9.4186 5.2811 8.54358L5.21263 7.74474C4.94599 4.66085 4.81386 3.11828 5.7562 2.40423C6.69952 1.69088 8.09444 2.27805 10.8829 3.45434L11.604 3.75821C12.3963 4.09243 12.792 4.2592 13.2149 4.24772C13.6369 4.23554 14.0382 4.04617 14.8408 3.66744L15.5716 3.32294Z" fill="#FFDE68"/>
<path d="M29.4733 21.6792C30.3833 20.255 30.8379 19.5429 31.4521 19.5798C32.0662 19.6166 32.4325 20.3779 33.1658 21.9006L33.3557 22.2947C33.564 22.7276 33.6682 22.9441 33.8415 23.0931C34.0147 23.2421 34.2387 23.307 34.6865 23.4366L35.0933 23.5548C36.6669 24.0116 37.4531 24.2397 37.6065 24.8614C37.7593 25.4823 37.1778 26.0859 36.014 27.2924L35.7128 27.6044C35.3825 27.9471 35.2166 28.1187 35.1339 28.3376C35.0511 28.5572 35.0599 28.7999 35.0777 29.2845L35.0942 29.7261C35.1565 31.4331 35.188 32.2863 34.6687 32.6333C34.1493 32.9809 33.4229 32.5918 31.9713 31.8148L31.5948 31.6139C31.1824 31.3927 30.9762 31.2827 30.7512 31.2692C30.5261 31.2557 30.3082 31.3402 29.8724 31.5107L29.4752 31.6652C27.9405 32.263 27.1729 32.562 26.6993 32.1561C26.2246 31.7488 26.3578 30.9055 26.6236 29.2182L26.6927 28.7824C26.7683 28.3027 26.8061 28.0628 26.7495 27.8355C26.6941 27.6077 26.55 27.4175 26.2629 27.0384L26.0012 26.6921C24.9899 25.3558 24.4846 24.687 24.7106 24.0881C24.9372 23.4892 25.7457 23.3561 27.3626 23.0912L27.7806 23.0226C28.2401 22.9473 28.4695 22.9096 28.66 22.7824C28.8499 22.6552 28.9791 22.4527 29.2377 22.0478L29.4733 21.6792Z" fill="#FFDE68"/>
<path d="M15.5716 3.32294C18.3951 1.99155 19.8064 1.32551 20.7303 1.98715C21.6542 2.6488 21.478 4.19936 21.1267 7.30119L21.0358 8.10402C20.9357 8.9858 20.8856 9.42668 21.01 9.83012C21.1343 10.2336 21.4206 10.5552 21.9931 11.1984L22.513 11.7832C24.5237 14.0454 25.5285 15.1753 25.1569 16.2981C24.785 17.4192 23.282 17.7908 20.2758 18.5323L19.4982 18.7237C18.6446 18.9345 18.2165 19.0398 17.8718 19.3006C17.5263 19.5624 17.3016 19.9505 16.8527 20.7257L16.444 21.4323C14.8624 24.1623 14.0724 25.5271 12.9192 25.5588C11.7652 25.5914 11.0123 24.2685 9.50712 21.626L9.11613 20.9415C8.6891 20.19 8.47488 19.8152 8.13635 19.5727C7.79782 19.3303 7.37399 19.2482 6.52495 19.0859L5.75205 18.9368C2.76464 18.3619 1.27045 18.0741 0.92936 16.9738C0.587717 15.8701 1.62551 14.6827 3.70081 12.3062L4.23752 11.6928C4.82759 11.0173 5.12262 10.6795 5.25761 10.2684C5.39524 9.85778 5.35701 9.4186 5.2811 8.54358L5.21263 7.74474C4.94599 4.66085 4.81386 3.11828 5.7562 2.40423C6.69952 1.69088 8.09444 2.27805 10.8829 3.45434L11.604 3.75821C12.3963 4.09243 12.792 4.2592 13.2149 4.24772C13.6369 4.23554 14.0382 4.04617 14.8408 3.66744L15.5716 3.32294Z" stroke="#432D2D" stroke-width="1.5"/>
<path d="M29.4733 21.6792C30.3833 20.255 30.8379 19.5429 31.4521 19.5798C32.0662 19.6166 32.4325 20.3779 33.1658 21.9006L33.3557 22.2947C33.564 22.7276 33.6682 22.9441 33.8415 23.0931C34.0147 23.2421 34.2387 23.307 34.6865 23.4366L35.0933 23.5548C36.6669 24.0116 37.4531 24.2397 37.6065 24.8614C37.7593 25.4823 37.1778 26.0859 36.014 27.2924L35.7128 27.6044C35.3825 27.9471 35.2166 28.1187 35.1339 28.3376C35.0511 28.5572 35.0599 28.7999 35.0777 29.2845L35.0942 29.7261C35.1565 31.4331 35.188 32.2863 34.6687 32.6333C34.1493 32.9809 33.4229 32.5918 31.9713 31.8148L31.5948 31.6139C31.1824 31.3927 30.9762 31.2827 30.7512 31.2692C30.5261 31.2557 30.3082 31.3402 29.8724 31.5107L29.4752 31.6652C27.9405 32.263 27.1729 32.562 26.6993 32.1561C26.2246 31.7488 26.3578 30.9055 26.6236 29.2182L26.6927 28.7824C26.7683 28.3027 26.8061 28.0628 26.7495 27.8355C26.6941 27.6077 26.55 27.4175 26.2629 27.0384L26.0012 26.6921C24.9899 25.3558 24.4846 24.687 24.7106 24.0881C24.9372 23.4892 25.7457 23.3561 27.3626 23.0912L27.7806 23.0226C28.2401 22.9473 28.4695 22.9096 28.66 22.7824C28.8499 22.6552 28.9791 22.4527 29.2377 22.0478L29.4733 21.6792Z" stroke="#432D2D" stroke-width="1.5"/>
</svg>
