<svg width="66" height="66" viewBox="0 0 66 66" fill="none" xmlns="http://www.w3.org/2000/svg">
<path d="M32.3057 11.2735L34.8636 16.2393C35.7726 18.0041 38.0082 18.5958 39.6712 17.5117L44.3506 14.4611C46.203 13.2535 48.5461 15.04 47.8721 17.1461L46.1694 22.4662C45.5643 24.3568 46.7267 26.356 48.6692 26.7653L54.1351 27.9171C56.2989 28.3731 56.6925 31.2932 54.7267 32.3058L49.7608 34.8636C47.996 35.7727 47.4044 38.0083 48.4885 39.6712L51.539 44.3507C52.7466 46.2031 50.9601 48.5462 48.8541 47.8722L43.534 46.1695C41.6433 45.5644 39.6441 46.7268 39.2348 48.6693L38.083 54.1352C37.6271 56.299 34.707 56.6926 33.6944 54.7268L31.1365 49.7609C30.2275 47.9961 27.9919 47.4045 26.3289 48.4886L21.6495 51.5391C19.797 52.7467 17.4539 50.9602 18.128 48.8542L19.8307 43.5341C20.4358 41.6434 19.2733 39.6442 17.3308 39.2349L11.8649 38.0831C9.70116 37.6272 9.30756 34.7071 11.2734 33.6945L16.2393 31.1366C18.004 30.2276 18.5957 27.992 17.5116 26.329L14.461 21.6496C13.2534 19.7971 15.0399 17.454 17.146 18.1281L22.4661 19.8307C24.3567 20.4359 26.3559 19.2734 26.7652 17.3309L27.917 11.865C28.373 9.70125 31.2931 9.30765 32.3057 11.2735Z" fill="#FFE81B" stroke="black"/>
<path d="M24.7844 35.4591L32.4101 39.6531L38.5096 24.783" stroke="black" stroke-width="3"/>
</svg>
